# 3ds Max Wavefront OBJ Exporter v0.97b - (c)2007 guruware
# File Created: 27.06.2013 12:04:40

#
# object Box001
#

v  -23.8784 0.0000 24.1210
v  24.1216 0.0000 24.1210
v  24.1216 4.0000 24.1210
v  -23.8784 4.0000 24.1210
v  24.1216 0.0000 -23.8790
v  24.1216 4.0000 -23.8790
v  -23.8784 0.0000 -23.8790
v  -23.8784 4.0000 -23.8790
v  -20.3588 0.0000 -20.3594
v  -20.3588 0.0000 20.6014
v  20.6020 0.0000 -20.3594
v  20.6020 0.0000 20.6014
v  20.6020 4.0000 20.6014
v  -20.3588 4.0000 20.6014
v  20.6020 4.0000 -20.3594
v  -20.3588 4.0000 -20.3594
# 16 vertices

vn 0.0000 0.0000 1.0000
vn 1.0000 0.0000 -0.0000
vn 0.0000 0.0000 -1.0000
vn -1.0000 0.0000 -0.0000
vn 0.0000 -1.0000 -0.0000
vn 0.0000 1.0000 -0.0000
# 6 vertex normals

vt 0.0000 0.0000 0.0000
vt 1.0000 0.0000 0.0000
vt 1.0000 1.0000 0.0000
vt 0.0000 1.0000 0.0000
# 4 texture coords

g Box001
f 1/1/1 2/2/1 3/3/1 
f 3/3/1 4/4/1 1/1/1 
f 2/1/2 5/2/2 6/3/2 
f 6/3/2 3/4/2 2/1/2 
f 5/1/3 7/2/3 8/3/3 
f 8/3/3 6/4/3 5/1/3 
f 7/1/4 1/2/4 4/3/4 
f 4/3/4 8/4/4 7/1/4 
f 1/2/5 7/1/5 9/3/5 
f 9/3/5 10/2/5 1/2/5 
f 7/2/5 5/1/5 11/4/5 
f 11/4/5 9/3/5 7/2/5 
f 5/2/5 2/1/5 12/1/5 
f 12/1/5 11/4/5 5/2/5 
f 2/2/5 1/1/5 10/2/5 
f 10/2/5 12/1/5 2/2/5 
f 4/4/6 3/3/6 13/2/6 
f 13/2/6 14/1/6 4/4/6 
f 3/4/6 6/3/6 15/3/6 
f 15/3/6 13/2/6 3/4/6 
f 6/4/6 8/3/6 16/4/6 
f 16/4/6 15/3/6 6/4/6 
f 8/4/6 4/3/6 14/1/6 
f 14/1/6 16/4/6 8/4/6 
f 15/4/4 11/4/4 12/3/4 
f 12/3/4 13/2/4 15/4/4 
f 16/3/1 9/2/1 11/4/1 
f 11/4/1 15/4/1 16/3/1 
f 14/1/2 10/1/2 9/2/2 
f 9/2/2 16/3/2 14/1/2 
f 13/2/3 12/3/3 10/1/3 
f 10/1/3 14/1/3 13/2/3 
# 32 faces

